<svg xmlns="http://www.w3.org/2000/svg" width="78" height="78" viewBox="0 0 78 78"><g transform="translate(-287 -727)"><g transform="translate(276 716)"><path d="M13,27a2,2,0,1,0,2,2A2,2,0,0,0,13,27Z" fill="#ee3e54"/><path d="M77,12a1,1,0,1,0,1,1A1,1,0,0,0,77,12Z" fill="#f1bc19"/><path d="M50,13A37,37,0,1,0,87,50,37,37,0,0,0,50,13Z" fill="#fce0a2"/><path d="M83,11a4,4,0,1,0,4,4A4,4,0,0,0,83,11Z" fill="#f1bc19"/><path d="M87,22a2,2,0,1,0,2,2A2,2,0,0,0,87,22Z" fill="#ee3e54"/><path d="M81,74a2,2,0,1,0,2,2A2,2,0,0,0,81,74ZM15,59a4,4,0,1,0,4,4A4,4,0,0,0,15,59Z" fill="#fbcd59"/><path d="M25,85a2,2,0,1,0,2,2A2,2,0,0,0,25,85Z" fill="#ee3e54"/><path d="M18.5,51A2.5,2.5,0,1,0,21,53.5,2.5,2.5,0,0,0,18.5,51Z" fill="#fff"/><path d="M21,66a1,1,0,1,0,1,1A1,1,0,0,0,21,66Z" fill="#f1bc19"/><path d="M80,33a1,1,0,1,0,1,1A1,1,0,0,0,80,33Z" fill="#fff"/></g><g transform="translate(293.527 736.578)"><path d="M58.905,13.752c.187-2.2.256-4.424-1.139-6.241a7.438,7.438,0,0,0-4.443-2.475A24.019,24.019,0,0,0,48,4.75c-7.084.146-14.987.184-22.071.344-3.345.075-7.4-1.249-10.778-1.166a13.487,13.487,0,0,0-4.918.733,8.8,8.8,0,0,0-4.536,5.4c-2.072,5.766-.933,12-.362,18.042a107.4,107.4,0,0,1,.01,18.67,3.643,3.643,0,0,0,1,2.889c1.718,1.772,3.615,3.572,6.163,4.087a27.8,27.8,0,0,0,7.8.08c2.033-.172,4.047-.16,6.081-.33,7.539-.515,15.079-.591,22.639-.592,2.623,0,5.49-.046,7.5-1.564,2.076-1.569,2.589-4.233,2.74-6.67.314-5.031-.325-10.064-.616-15.095A76.174,76.174,0,0,1,58.905,13.752Z" transform="translate(0.002 0)" fill="#d03827"/><path d="M16.157,54.57a18.332,18.332,0,0,1-3.657-.332c-2.713-.551-4.695-2.41-6.493-4.269a4.228,4.228,0,0,1-1.166-3.341,106.949,106.949,0,0,0-.01-18.465c-.084-.885-.18-1.774-.275-2.666C4,20.326,3.426,14.982,5.223,9.969a9.446,9.446,0,0,1,4.87-5.751,14.069,14.069,0,0,1,5.161-.789,29.56,29.56,0,0,1,5.576.407,27.416,27.416,0,0,0,5.124.751c3.693-.082,7.611-.133,11.518-.183,3.532-.044,7.054-.09,10.393-.159a24.389,24.389,0,0,1,5.457.3,8.045,8.045,0,0,1,4.832,2.717c1.507,1.97,1.445,4.347,1.253,6.615v.018a75.63,75.63,0,0,0-.241,15.646c.077,1.334.178,2.668.281,4a80.472,80.472,0,0,1,.33,11.084c-.146,2.361-.617,5.3-2.97,7.082-2.25,1.7-5.379,1.7-7.9,1.7-8.328,0-15.326.1-22.42.589-1.009.085-2.024.125-3.04.166-.993.039-1.986.08-2.982.163C19.047,54.449,17.606,54.57,16.157,54.57ZM49.49,5.488c-.533,0-1.066.011-1.592.023-3.343.07-6.869.114-10.405.159-3.9.049-7.815.1-11.5.183A27.766,27.766,0,0,1,20.847,5.1,29.157,29.157,0,0,0,15.293,4.7a12.921,12.921,0,0,0-4.6.668c-2.281.963-3.507,3.246-4.131,4.993-1.709,4.764-1.147,9.978-.6,15.019.1.9.192,1.791.276,2.682a107.861,107.861,0,0,1,.01,18.677,3.043,3.043,0,0,0,.825,2.4c1.645,1.7,3.444,3.4,5.743,3.866a26.84,26.84,0,0,0,7.526.067c1.021-.086,2.037-.126,3.052-.167.993-.039,1.986-.08,2.984-.163,7.148-.488,14.177-.59,22.538-.593,2.288,0,5.135,0,6.993-1.408,1.941-1.468,2.34-4.078,2.472-6.186a79.916,79.916,0,0,0-.33-10.926c-.1-1.341-.2-2.68-.282-4.021a76.6,76.6,0,0,1,.247-15.834c.18-2.124.236-4.165-1.009-5.794a6.647,6.647,0,0,0-3.989-2.2A17.492,17.492,0,0,0,49.49,5.488Z" fill="#010101"/><path d="M29.22,28.813a9.042,9.042,0,0,1-2.924.492c-3.046-.054-1.7,1.538-1.032,2.344a6.849,6.849,0,0,1-2.621.8A8.647,8.647,0,0,1,16.5,30c-1.5-1.75-1.234-.044-.25,1.5a6.764,6.764,0,0,0,6.5,3.25,8.607,8.607,0,0,0,4.686-1.127c.128.615.713,1.377,1.314,1.377.839,0,1.412-.935,1.5-1.7a18.674,18.674,0,0,1,.406-2.2A1.423,1.423,0,0,0,29.22,28.813Z" transform="translate(7.559 7.898)" fill="#d6e5e5"/><path d="M9.9,28a.946.946,0,0,1-.2-.021A.963.963,0,0,1,8.915,26.8c.246-.748.338-.8.491-1.343s.3-1.059.451-1.81c.055-.265.1-.427.143-.645.056-.291.06-.887.085-1.094a1,1,0,0,1,1.986.239c-.034.281-.052,1-.123,1.307-.037.162-.081.351-.132.6-.169.82-.329,1.393-.484,1.946a5.806,5.806,0,0,1-.458,1.207C10.618,27.611,10.36,28,9.9,28Z" transform="translate(0 5.608)" fill="#d6e5e5"/><path d="M11.9,20a1,1,0,0,1-.963-.735,1.158,1.158,0,0,1,.038-.771,1.143,1.143,0,0,1,.783-.636,1.044,1.044,0,0,1,.942.286,1,1,0,0,1,.286.588,1.1,1.1,0,0,1-.328.921,1,1,0,0,1-.492.312A1.056,1.056,0,0,1,11.9,20Zm.965-1.266Z" transform="translate(2.928 4.016)" fill="#d6e5e5"/><path d="M20.651,16.764a3.731,3.731,0,0,1-.742-.042,3.88,3.88,0,0,0-2.207.095,3.421,3.421,0,0,0-1.281,1.529,15.877,15.877,0,0,0-.8,1.689c-.02.045-.031.091-.05.136l-1.491-.118a1,1,0,1,0-.158,1.994l1.006.08a11.588,11.588,0,0,0-.759,2.2c-.129.6-.5,2.409-.5,2.409a1,1,0,0,0,.7,1.228,1.033,1.033,0,0,0,.263.035,1,1,0,0,0,.964-.738s.346-1.944.474-2.589a20.309,20.309,0,0,1,.886-2.385l.729.058.08,0a1,1,0,0,0,.078-2L17.7,20.34c.165-.319.265-.676.443-.976.138-.234.269-.665.463-.763s.7.064,1.075.108a5.375,5.375,0,0,0,1.16.046,1,1,0,0,0-.189-1.991Z" transform="translate(4.641 4.838)" fill="#d6e5e5"/><path d="M21.978,27a3.353,3.353,0,0,1-.641-.071,7.928,7.928,0,0,1-1.115-.307,1.622,1.622,0,0,1-1.216-1.572,5.161,5.161,0,0,1,1.524-3.745,5.619,5.619,0,0,1,1-.846,4.214,4.214,0,0,1,1.1-.523,3.4,3.4,0,0,1,.629-.126,1.776,1.776,0,0,1,.851.075,1.533,1.533,0,0,1,.485.309,2.54,2.54,0,0,1,.541.55,2.726,2.726,0,0,1,.472,1.368A4.078,4.078,0,0,1,25.1,24.2a7.635,7.635,0,0,1-1.465,2.023,2.571,2.571,0,0,1-1.073.692A2.081,2.081,0,0,1,21.978,27Zm-.72-5.009h0Z" transform="translate(7.241 5.252)" fill="#d6e5e5"/><path d="M28.134,27a2.7,2.7,0,0,1-.432-.034,2,2,0,0,1-.957-.412,2.056,2.056,0,0,1-.7-1.3,4.164,4.164,0,0,1,.34-2.348,10.931,10.931,0,0,1,.908-1.6l.085-.132a3.71,3.71,0,0,1,.945-1.089,2.08,2.08,0,0,1,.653-.31,1,1,0,0,1,.685-.332,3.058,3.058,0,0,1,2.171.722,2.224,2.224,0,0,1,.783,1.263,2.666,2.666,0,0,1-.082,1.19,6.575,6.575,0,0,1-.726,1.929,5.745,5.745,0,0,1-.945,1.128,5.438,5.438,0,0,1-1.28.958A3.215,3.215,0,0,1,28.134,27Z" transform="translate(10.635 5.193)" fill="#d6e5e5"/><path d="M37.038,28a1,1,0,0,1-1-1q0-.3.016-.594a3.979,3.979,0,0,1-1.8.257,1.424,1.424,0,0,1-.85-.44,1.516,1.516,0,0,1-.364-.867,5.613,5.613,0,0,1,.372-2.8,3.376,3.376,0,0,1,1.688-1.9,3.964,3.964,0,0,1,1.994-.187c.148-.638.647-2.485.835-3.12a1,1,0,0,1,1.937.492c-.17.8-.71,2.813-.944,3.609-.123.557-.237,1.114-.351,1.664A19.7,19.7,0,0,0,38.038,27,1,1,0,0,1,37.038,28Z" transform="translate(16.035 4.844)" fill="#d6e5e5"/></g></g></svg>